<svg width="32" height="32" viewBox="0 0 32 32" fill="none" xmlns="http://www.w3.org/2000/svg">
<path d="M16.0013 2.6665C8.63464 2.6665 2.66797 8.63317 2.66797 15.9998C2.66556 18.7989 3.54498 21.5276 5.18138 23.7985C6.81777 26.0694 9.12798 27.7671 11.784 28.6505C12.4506 28.7665 12.7013 28.3665 12.7013 28.0158C12.7013 27.6998 12.684 26.6505 12.684 25.5332C9.33464 26.1505 8.46797 24.7172 8.20131 23.9665C8.05064 23.5825 7.40131 22.3998 6.83464 22.0825C6.36797 21.8332 5.70131 21.2158 6.81731 21.1998C7.86797 21.1825 8.61731 22.1665 8.86797 22.5665C10.068 24.5825 11.984 24.0158 12.7506 23.6665C12.868 22.7998 13.2173 22.2172 13.6013 21.8838C10.6346 21.5505 7.53464 20.3998 7.53464 15.2998C7.53464 13.8492 8.05064 12.6505 8.90131 11.7172C8.76797 11.3838 8.30131 10.0172 9.03464 8.18384C9.03464 8.18384 10.1506 7.83317 12.7013 9.54917C13.7869 9.2487 14.9083 9.09753 16.0346 9.09984C17.168 9.09984 18.3013 9.24917 19.368 9.54917C21.9186 7.81584 23.0346 8.18384 23.0346 8.18384C23.768 10.0172 23.3013 11.3838 23.168 11.7172C24.0173 12.6505 24.5346 13.8332 24.5346 15.2998C24.5346 20.4172 21.4186 21.5505 18.452 21.8838C18.9346 22.2998 19.352 23.0998 19.352 24.3505C19.352 26.1332 19.3346 27.5665 19.3346 28.0172C19.3346 28.3665 19.5853 28.7825 20.252 28.6492C22.898 27.7546 25.1971 26.0533 26.8261 23.7844C28.455 21.5154 29.3318 18.793 29.3333 15.9998C29.3333 8.63317 23.3666 2.6665 16 2.6665" fill="white" fill-opacity="0.55"/>
</svg>
