<svg width="48" height="49" viewBox="0 0 48 49" fill="none" xmlns="http://www.w3.org/2000/svg">
<path fill-rule="evenodd" clip-rule="evenodd" d="M20.4005 20.6375H25.6001V22.9685C26.3491 21.6279 28.2699 20.4233 31.1553 20.4233C36.6867 20.4233 37.9999 23.092 37.9999 27.9884V37.0566H32.3999V29.1035C32.3999 26.3151 31.6509 24.7426 29.7441 24.7426C27.0995 24.7426 26.0005 26.4373 26.0005 29.1022V37.0566H20.4005V20.6375Z" fill="white" fill-opacity="0.55"/>
<path fill-rule="evenodd" clip-rule="evenodd" d="M10.798 36.8424H16.398V20.4233H10.798V36.8424Z" fill="white" fill-opacity="0.55"/>
<path fill-rule="evenodd" clip-rule="evenodd" d="M17.2002 15.0694C17.2004 15.4919 17.1073 15.9102 16.9263 16.2999C16.7454 16.6897 16.4801 17.0433 16.146 17.34C15.469 17.9456 14.5525 18.2845 13.598 18.2824C12.6451 18.2819 11.7308 17.9438 11.0528 17.3412C10.7199 17.0435 10.4555 16.6896 10.2749 16.2998C10.0942 15.9099 10.0008 15.4918 10 15.0694C10 14.2164 10.378 13.3999 11.0542 12.7977C11.7316 12.1943 12.6463 11.8561 13.5994 11.8564C14.5542 11.8564 15.4698 12.1954 16.146 12.7977C16.8208 13.3999 17.2002 14.2164 17.2002 15.0694Z" fill="white" fill-opacity="0.55"/>
</svg>
