<svg width="48" height="49" viewBox="0 0 48 49" fill="none" xmlns="http://www.w3.org/2000/svg">
<path d="M38 20.3076V31.7064C38.0001 32.8686 37.5554 33.9868 36.7573 34.8315C35.9591 35.6763 34.8679 36.1836 33.7076 36.2494L33.45 36.2564H14.55C13.3878 36.2565 12.2696 35.8118 11.4249 35.0137C10.5801 34.2155 10.0728 33.1243 10.007 31.964L10 31.7064V20.3076L23.5128 27.386C23.6631 27.4648 23.8303 27.5059 24 27.5059C24.1697 27.5059 24.3369 27.4648 24.4872 27.386L38 20.3076Z" fill="white" fill-opacity="0.55"/>
<path d="M14.5499 13.8564H33.4499C34.5777 13.8563 35.6654 14.275 36.5019 15.0314C37.3385 15.7878 37.8643 16.8279 37.9775 17.95L23.9999 25.272L10.0223 17.95C10.1308 16.8725 10.6201 15.869 11.4023 15.1199C12.1845 14.3708 13.2082 13.9253 14.2895 13.8634L14.5499 13.8564H33.4499H14.5499Z" fill="white" fill-opacity="0.55"/>
</svg>
