<svg width="240" height="488" viewBox="0 0 240 488" fill="none" xmlns="http://www.w3.org/2000/svg">
<rect width="240" height="119.077" transform="translate(0 99.323)" fill="black"/>
<g clip-path="url(#clip0_594_1228)">
<g filter="url(#filter0_f_594_1228)">
<rect width="2" height="57.6308" rx="0.184615" transform="matrix(-1 0 0 1 239.815 147.508)" fill="#DEDEDE"/>
<rect x="0.0923077" y="-0.0923077" width="2.18462" height="57.8154" rx="0.276923" transform="matrix(-1 0 0 1 240 147.508)" stroke="black" stroke-width="0.184615"/>
</g>
<g filter="url(#filter1_f_594_1228)">
<rect x="0.0923077" y="-0.0923077" width="1.81538" height="57.4462" rx="0.129231" transform="matrix(-1 0 0 1 239.815 147.692)" stroke="#FAFAF8" stroke-width="0.184615"/>
</g>
<g filter="url(#filter2_f_594_1228)">
<rect width="1.66154" height="4.06154" rx="0.0923077" transform="matrix(-1 0 0 1 239.631 147.692)" fill="url(#paint0_linear_594_1228)"/>
</g>
<g filter="url(#filter3_f_594_1228)">
<rect x="239.631" y="204.954" width="1.66154" height="4.06154" rx="0.0923077" transform="rotate(180 239.631 204.954)" fill="url(#paint1_linear_594_1228)"/>
</g>
</g>
<g clip-path="url(#clip1_594_1228)">
<g filter="url(#filter4_f_594_1228)">
<rect x="0.18457" y="99.5076" width="2" height="17.6308" rx="0.184615" fill="#DEDEDE"/>
<rect x="0.0922626" y="99.4153" width="2.18462" height="17.8154" rx="0.276923" stroke="black" stroke-width="0.184615"/>
</g>
<g filter="url(#filter5_f_594_1228)">
<rect x="0.276833" y="99.5998" width="1.81538" height="17.4462" rx="0.129231" stroke="#FAFAF8" stroke-width="0.184615"/>
</g>
<g filter="url(#filter6_f_594_1228)">
<rect x="0.369141" y="99.6921" width="1.66154" height="2.03077" rx="0.0923077" fill="url(#paint2_linear_594_1228)"/>
</g>
<g filter="url(#filter7_f_594_1228)">
<rect width="1.66154" height="2.03077" rx="0.0923077" transform="matrix(1 0 0 -1 0.369141 116.954)" fill="url(#paint3_linear_594_1228)"/>
</g>
</g>
<g clip-path="url(#clip2_594_1228)">
<g filter="url(#filter8_f_594_1228)">
<rect x="0.18457" y="134.4" width="2" height="36.6308" rx="0.184615" fill="#DEDEDE"/>
<rect x="0.0922626" y="134.308" width="2.18462" height="36.8154" rx="0.276923" stroke="black" stroke-width="0.184615"/>
</g>
<g filter="url(#filter9_f_594_1228)">
<rect x="0.276833" y="134.492" width="1.81538" height="36.4462" rx="0.129231" stroke="#FAFAF8" stroke-width="0.184615"/>
</g>
<g filter="url(#filter10_f_594_1228)">
<rect x="0.369141" y="134.584" width="1.66154" height="4.06154" rx="0.0923077" fill="url(#paint4_linear_594_1228)"/>
</g>
<g filter="url(#filter11_f_594_1228)">
<rect width="1.66154" height="4.06154" rx="0.0923077" transform="matrix(1 0 0 -1 0.369141 170.846)" fill="url(#paint5_linear_594_1228)"/>
</g>
</g>
<g clip-path="url(#clip3_594_1228)">
<g filter="url(#filter12_f_594_1228)">
<rect x="0.18457" y="181.292" width="2" height="36.6308" rx="0.184615" fill="#DEDEDE"/>
<rect x="0.0922626" y="181.2" width="2.18462" height="36.8154" rx="0.276923" stroke="black" stroke-width="0.184615"/>
</g>
<g filter="url(#filter13_f_594_1228)">
<rect x="0.276833" y="181.384" width="1.81538" height="36.4462" rx="0.129231" stroke="#FAFAF8" stroke-width="0.184615"/>
</g>
<g filter="url(#filter14_f_594_1228)">
<rect x="0.369141" y="181.477" width="1.66154" height="4.06154" rx="0.0923077" fill="url(#paint6_linear_594_1228)"/>
</g>
<g filter="url(#filter15_f_594_1228)">
<rect width="1.66154" height="4.06154" rx="0.0923077" transform="matrix(1 0 0 -1 0.369141 217.739)" fill="url(#paint7_linear_594_1228)"/>
</g>
</g>
<g clip-path="url(#clip4_594_1228)">
<rect x="1.84619" width="236.308" height="487.754" rx="38.7692" fill="black"/>
<rect x="3.96929" y="2.1231" width="232.062" height="483.508" rx="36.6462" stroke="#515868" stroke-width="2.4"/>
<rect x="2.30773" y="0.461538" width="235.385" height="486.831" rx="38.3077" stroke="#303640" stroke-width="0.923077"/>
<g opacity="0.9" filter="url(#filter16_f_594_1228)">
<rect x="2.76929" y="1.10767" width="234.462" height="485.723" rx="38.0308" stroke="#717989" stroke-width="0.923077"/>
</g>
<g opacity="0.8" filter="url(#filter17_f_594_1228)">
<rect x="5.90767" y="4.06148" width="228.185" height="479.631" rx="34.7077" stroke="#646464" stroke-width="0.369231"/>
</g>
<rect x="85.8462" y="17.5386" width="68.3077" height="19.9385" rx="9.96923" fill="black"/>
<g opacity="0.75">
<rect x="135.877" y="22.8924" width="9.23077" height="9.23077" rx="4.61538" fill="#121212"/>
<rect x="135.877" y="22.8924" width="9.23077" height="9.23077" rx="4.61538" stroke="#0E0E0E" stroke-width="0.369231"/>
<g filter="url(#filter18_f_594_1228)">
<path d="M139.464 25.4507C137.904 25.9078 137.384 28.5364 139.464 29.565C138.944 28.1935 138.944 26.9364 139.464 25.4507Z" fill="#50A99A"/>
</g>
<g filter="url(#filter19_f_594_1228)">
<path d="M139.121 26.4001C138.341 26.6463 138.081 28.0617 139.121 28.6155C138.861 27.8771 138.861 27.2001 139.121 26.4001Z" fill="#50A99A"/>
</g>
<g opacity="0.4" filter="url(#filter20_f_594_1228)">
<path d="M139.442 26.043C138.774 26.1438 138.285 27.9928 139.092 28.4837C138.807 27.8244 138.95 26.5057 139.442 26.043Z" fill="#D0FFF7"/>
</g>
<g filter="url(#filter21_f_594_1228)">
<path d="M141.521 25.4507C143.08 25.9078 143.6 28.5364 141.521 29.565C142.041 28.1935 142.041 26.9364 141.521 25.4507Z" fill="#3E518C"/>
</g>
<g filter="url(#filter22_f_594_1228)">
<path d="M141.864 26.4001C142.644 26.6463 142.903 28.0617 141.864 28.6155C142.124 27.8771 142.124 27.2001 141.864 26.4001Z" fill="#26408D"/>
</g>
<g opacity="0.5" filter="url(#filter23_f_594_1228)">
<path d="M141.543 26.043C142.211 26.1438 142.7 27.9928 141.892 28.4837C142.178 27.8244 142.035 26.5057 141.543 26.043Z" fill="#0D308C"/>
</g>
</g>
<g opacity="0.4">
<rect width="13.2923" height="13.2923" rx="6.64615" transform="matrix(-1 0 0 1 102.462 20.8616)" fill="#141414"/>
<rect width="8.64" height="8.64" rx="4.32" transform="matrix(-1 0 0 1 100.135 23.1877)" fill="black"/>
<g filter="url(#filter24_f_594_1228)">
<path d="M97.1116 24.9158C99.0766 25.4918 99.7315 28.8038 97.1116 30.0998C97.7665 28.3718 97.7665 26.7878 97.1116 24.9158Z" fill="#50A99A"/>
</g>
<g filter="url(#filter25_f_594_1228)">
<path d="M97.5437 26.1121C98.5262 26.4222 98.8537 28.2056 97.5437 28.9034C97.8712 27.973 97.8712 27.1201 97.5437 26.1121Z" fill="#50A99A"/>
</g>
<g opacity="0.5" filter="url(#filter26_f_594_1228)">
<path d="M97.1393 25.6621C97.9813 25.789 98.5965 28.1187 97.5796 28.7373C97.9396 27.9066 97.7596 26.245 97.1393 25.6621Z" fill="#D0FFF7"/>
</g>
<g filter="url(#filter27_f_594_1228)">
<path d="M94.5193 24.9158C92.5543 25.4918 91.8994 28.8038 94.5193 30.0998C93.8643 28.3718 93.8643 26.7878 94.5193 24.9158Z" fill="#3E518C"/>
</g>
<g filter="url(#filter28_f_594_1228)">
<path d="M94.0871 26.1121C93.1047 26.4222 92.7772 28.2056 94.0871 28.9034C93.7597 27.973 93.7597 27.1201 94.0871 26.1121Z" fill="#26408D"/>
</g>
<g opacity="0.5" filter="url(#filter29_f_594_1228)">
<path d="M94.4916 25.6621C93.6495 25.789 93.0344 28.1187 94.0513 28.7373C93.6913 27.9066 93.8713 26.245 94.4916 25.6621Z" fill="#0D308C"/>
</g>
</g>
<g opacity="0.4">
<g style="mix-blend-mode:screen" opacity="0.75">
<rect x="1.84619" y="435.323" width="3.32308" height="2.95385" fill="#7C7C7C"/>
</g>
<g style="mix-blend-mode:screen" opacity="0.75">
<rect x="50.4001" y="484.062" width="2.95385" height="3.32308" fill="#7C7C7C"/>
</g>
<g style="mix-blend-mode:screen" opacity="0.75">
<rect x="234.831" y="49.2922" width="3.32308" height="2.95385" fill="#7C7C7C"/>
</g>
<g style="mix-blend-mode:screen" opacity="0.75">
<rect x="1.84619" y="49.2922" width="3.32308" height="2.95385" fill="#7C7C7C"/>
</g>
<g style="mix-blend-mode:screen" opacity="0.75">
<rect x="189.969" width="2.95385" height="3.32308" fill="#7C7C7C"/>
</g>
<g style="mix-blend-mode:screen" opacity="0.75">
<rect x="234.831" y="435.138" width="3.32308" height="2.95385" fill="#7C7C7C"/>
</g>
</g>
</g>
<defs>
<filter id="filter0_f_594_1228" x="237.446" y="147.138" width="2.73837" height="58.3692" filterUnits="userSpaceOnUse" color-interpolation-filters="sRGB">
<feFlood flood-opacity="0" result="BackgroundImageFix"/>
<feBlend mode="normal" in="SourceGraphic" in2="BackgroundImageFix" result="shape"/>
<feGaussianBlur stdDeviation="0.0923077" result="effect1_foregroundBlur_594_1228"/>
</filter>
<filter id="filter1_f_594_1228" x="237.631" y="147.323" width="2.36923" height="57.9998" filterUnits="userSpaceOnUse" color-interpolation-filters="sRGB">
<feFlood flood-opacity="0" result="BackgroundImageFix"/>
<feBlend mode="normal" in="SourceGraphic" in2="BackgroundImageFix" result="shape"/>
<feGaussianBlur stdDeviation="0.0923077" result="effect1_foregroundBlur_594_1228"/>
</filter>
<filter id="filter2_f_594_1228" x="237.785" y="147.508" width="2.03085" height="4.43075" filterUnits="userSpaceOnUse" color-interpolation-filters="sRGB">
<feFlood flood-opacity="0" result="BackgroundImageFix"/>
<feBlend mode="normal" in="SourceGraphic" in2="BackgroundImageFix" result="shape"/>
<feGaussianBlur stdDeviation="0.0923077" result="effect1_foregroundBlur_594_1228"/>
</filter>
<filter id="filter3_f_594_1228" x="237.785" y="200.708" width="2.03085" height="4.43075" filterUnits="userSpaceOnUse" color-interpolation-filters="sRGB">
<feFlood flood-opacity="0" result="BackgroundImageFix"/>
<feBlend mode="normal" in="SourceGraphic" in2="BackgroundImageFix" result="shape"/>
<feGaussianBlur stdDeviation="0.0923077" result="effect1_foregroundBlur_594_1228"/>
</filter>
<filter id="filter4_f_594_1228" x="-0.184615" y="99.1384" width="2.73837" height="18.3692" filterUnits="userSpaceOnUse" color-interpolation-filters="sRGB">
<feFlood flood-opacity="0" result="BackgroundImageFix"/>
<feBlend mode="normal" in="SourceGraphic" in2="BackgroundImageFix" result="shape"/>
<feGaussianBlur stdDeviation="0.0923077" result="effect1_foregroundBlur_594_1228"/>
</filter>
<filter id="filter5_f_594_1228" x="-4.5076e-05" y="99.323" width="2.36923" height="17.9998" filterUnits="userSpaceOnUse" color-interpolation-filters="sRGB">
<feFlood flood-opacity="0" result="BackgroundImageFix"/>
<feBlend mode="normal" in="SourceGraphic" in2="BackgroundImageFix" result="shape"/>
<feGaussianBlur stdDeviation="0.0923077" result="effect1_foregroundBlur_594_1228"/>
</filter>
<filter id="filter6_f_594_1228" x="0.184525" y="99.5075" width="2.03085" height="2.39999" filterUnits="userSpaceOnUse" color-interpolation-filters="sRGB">
<feFlood flood-opacity="0" result="BackgroundImageFix"/>
<feBlend mode="normal" in="SourceGraphic" in2="BackgroundImageFix" result="shape"/>
<feGaussianBlur stdDeviation="0.0923077" result="effect1_foregroundBlur_594_1228"/>
</filter>
<filter id="filter7_f_594_1228" x="0.184525" y="114.738" width="2.03085" height="2.39999" filterUnits="userSpaceOnUse" color-interpolation-filters="sRGB">
<feFlood flood-opacity="0" result="BackgroundImageFix"/>
<feBlend mode="normal" in="SourceGraphic" in2="BackgroundImageFix" result="shape"/>
<feGaussianBlur stdDeviation="0.0923077" result="effect1_foregroundBlur_594_1228"/>
</filter>
<filter id="filter8_f_594_1228" x="-0.184615" y="134.031" width="2.73837" height="37.3692" filterUnits="userSpaceOnUse" color-interpolation-filters="sRGB">
<feFlood flood-opacity="0" result="BackgroundImageFix"/>
<feBlend mode="normal" in="SourceGraphic" in2="BackgroundImageFix" result="shape"/>
<feGaussianBlur stdDeviation="0.0923077" result="effect1_foregroundBlur_594_1228"/>
</filter>
<filter id="filter9_f_594_1228" x="-4.5076e-05" y="134.215" width="2.36923" height="36.9998" filterUnits="userSpaceOnUse" color-interpolation-filters="sRGB">
<feFlood flood-opacity="0" result="BackgroundImageFix"/>
<feBlend mode="normal" in="SourceGraphic" in2="BackgroundImageFix" result="shape"/>
<feGaussianBlur stdDeviation="0.0923077" result="effect1_foregroundBlur_594_1228"/>
</filter>
<filter id="filter10_f_594_1228" x="0.184525" y="134.4" width="2.03085" height="4.43075" filterUnits="userSpaceOnUse" color-interpolation-filters="sRGB">
<feFlood flood-opacity="0" result="BackgroundImageFix"/>
<feBlend mode="normal" in="SourceGraphic" in2="BackgroundImageFix" result="shape"/>
<feGaussianBlur stdDeviation="0.0923077" result="effect1_foregroundBlur_594_1228"/>
</filter>
<filter id="filter11_f_594_1228" x="0.184525" y="166.6" width="2.03085" height="4.43075" filterUnits="userSpaceOnUse" color-interpolation-filters="sRGB">
<feFlood flood-opacity="0" result="BackgroundImageFix"/>
<feBlend mode="normal" in="SourceGraphic" in2="BackgroundImageFix" result="shape"/>
<feGaussianBlur stdDeviation="0.0923077" result="effect1_foregroundBlur_594_1228"/>
</filter>
<filter id="filter12_f_594_1228" x="-0.184615" y="180.923" width="2.73837" height="37.3692" filterUnits="userSpaceOnUse" color-interpolation-filters="sRGB">
<feFlood flood-opacity="0" result="BackgroundImageFix"/>
<feBlend mode="normal" in="SourceGraphic" in2="BackgroundImageFix" result="shape"/>
<feGaussianBlur stdDeviation="0.0923077" result="effect1_foregroundBlur_594_1228"/>
</filter>
<filter id="filter13_f_594_1228" x="-4.5076e-05" y="181.108" width="2.36923" height="36.9998" filterUnits="userSpaceOnUse" color-interpolation-filters="sRGB">
<feFlood flood-opacity="0" result="BackgroundImageFix"/>
<feBlend mode="normal" in="SourceGraphic" in2="BackgroundImageFix" result="shape"/>
<feGaussianBlur stdDeviation="0.0923077" result="effect1_foregroundBlur_594_1228"/>
</filter>
<filter id="filter14_f_594_1228" x="0.184525" y="181.292" width="2.03085" height="4.43075" filterUnits="userSpaceOnUse" color-interpolation-filters="sRGB">
<feFlood flood-opacity="0" result="BackgroundImageFix"/>
<feBlend mode="normal" in="SourceGraphic" in2="BackgroundImageFix" result="shape"/>
<feGaussianBlur stdDeviation="0.0923077" result="effect1_foregroundBlur_594_1228"/>
</filter>
<filter id="filter15_f_594_1228" x="0.184525" y="213.492" width="2.03085" height="4.43075" filterUnits="userSpaceOnUse" color-interpolation-filters="sRGB">
<feFlood flood-opacity="0" result="BackgroundImageFix"/>
<feBlend mode="normal" in="SourceGraphic" in2="BackgroundImageFix" result="shape"/>
<feGaussianBlur stdDeviation="0.0923077" result="effect1_foregroundBlur_594_1228"/>
</filter>
<filter id="filter16_f_594_1228" x="1.75402" y="0.0923941" width="236.492" height="487.754" filterUnits="userSpaceOnUse" color-interpolation-filters="sRGB">
<feFlood flood-opacity="0" result="BackgroundImageFix"/>
<feBlend mode="normal" in="SourceGraphic" in2="BackgroundImageFix" result="shape"/>
<feGaussianBlur stdDeviation="0.276923" result="effect1_foregroundBlur_594_1228"/>
</filter>
<filter id="filter17_f_594_1228" x="5.35391" y="3.50772" width="229.292" height="480.738" filterUnits="userSpaceOnUse" color-interpolation-filters="sRGB">
<feFlood flood-opacity="0" result="BackgroundImageFix"/>
<feBlend mode="normal" in="SourceGraphic" in2="BackgroundImageFix" result="shape"/>
<feGaussianBlur stdDeviation="0.184615" result="effect1_foregroundBlur_594_1228"/>
</filter>
<filter id="filter18_f_594_1228" x="137.064" y="24.4221" width="3.42848" height="6.1714" filterUnits="userSpaceOnUse" color-interpolation-filters="sRGB">
<feFlood flood-opacity="0" result="BackgroundImageFix"/>
<feBlend mode="normal" in="SourceGraphic" in2="BackgroundImageFix" result="shape"/>
<feGaussianBlur stdDeviation="0.514286" result="effect1_foregroundBlur_594_1228"/>
</filter>
<filter id="filter19_f_594_1228" x="137.407" y="25.3716" width="2.74293" height="4.27248" filterUnits="userSpaceOnUse" color-interpolation-filters="sRGB">
<feFlood flood-opacity="0" result="BackgroundImageFix"/>
<feBlend mode="normal" in="SourceGraphic" in2="BackgroundImageFix" result="shape"/>
<feGaussianBlur stdDeviation="0.514286" result="effect1_foregroundBlur_594_1228"/>
</filter>
<filter id="filter20_f_594_1228" x="137.986" y="25.3573" width="2.1412" height="3.8121" filterUnits="userSpaceOnUse" color-interpolation-filters="sRGB">
<feFlood flood-opacity="0" result="BackgroundImageFix"/>
<feBlend mode="normal" in="SourceGraphic" in2="BackgroundImageFix" result="shape"/>
<feGaussianBlur stdDeviation="0.342857" result="effect1_foregroundBlur_594_1228"/>
</filter>
<filter id="filter21_f_594_1228" x="140.492" y="24.4221" width="3.42848" height="6.1714" filterUnits="userSpaceOnUse" color-interpolation-filters="sRGB">
<feFlood flood-opacity="0" result="BackgroundImageFix"/>
<feBlend mode="normal" in="SourceGraphic" in2="BackgroundImageFix" result="shape"/>
<feGaussianBlur stdDeviation="0.514286" result="effect1_foregroundBlur_594_1228"/>
</filter>
<filter id="filter22_f_594_1228" x="140.835" y="25.3716" width="2.74293" height="4.27248" filterUnits="userSpaceOnUse" color-interpolation-filters="sRGB">
<feFlood flood-opacity="0" result="BackgroundImageFix"/>
<feBlend mode="normal" in="SourceGraphic" in2="BackgroundImageFix" result="shape"/>
<feGaussianBlur stdDeviation="0.514286" result="effect1_foregroundBlur_594_1228"/>
</filter>
<filter id="filter23_f_594_1228" x="140.857" y="25.3573" width="2.1412" height="3.8121" filterUnits="userSpaceOnUse" color-interpolation-filters="sRGB">
<feFlood flood-opacity="0" result="BackgroundImageFix"/>
<feBlend mode="normal" in="SourceGraphic" in2="BackgroundImageFix" result="shape"/>
<feGaussianBlur stdDeviation="0.342857" result="effect1_foregroundBlur_594_1228"/>
</filter>
<filter id="filter24_f_594_1228" x="95.8156" y="23.6198" width="4.32003" height="7.77608" filterUnits="userSpaceOnUse" color-interpolation-filters="sRGB">
<feFlood flood-opacity="0" result="BackgroundImageFix"/>
<feBlend mode="normal" in="SourceGraphic" in2="BackgroundImageFix" result="shape"/>
<feGaussianBlur stdDeviation="0.648" result="effect1_foregroundBlur_594_1228"/>
</filter>
<filter id="filter25_f_594_1228" x="96.2477" y="24.8161" width="3.45601" height="5.3835" filterUnits="userSpaceOnUse" color-interpolation-filters="sRGB">
<feFlood flood-opacity="0" result="BackgroundImageFix"/>
<feBlend mode="normal" in="SourceGraphic" in2="BackgroundImageFix" result="shape"/>
<feGaussianBlur stdDeviation="0.648" result="effect1_foregroundBlur_594_1228"/>
</filter>
<filter id="filter26_f_594_1228" x="96.7074" y="25.2301" width="1.83373" height="3.9392" filterUnits="userSpaceOnUse" color-interpolation-filters="sRGB">
<feFlood flood-opacity="0" result="BackgroundImageFix"/>
<feBlend mode="normal" in="SourceGraphic" in2="BackgroundImageFix" result="shape"/>
<feGaussianBlur stdDeviation="0.216" result="effect1_foregroundBlur_594_1228"/>
</filter>
<filter id="filter27_f_594_1228" x="91.4953" y="23.6198" width="4.32003" height="7.77608" filterUnits="userSpaceOnUse" color-interpolation-filters="sRGB">
<feFlood flood-opacity="0" result="BackgroundImageFix"/>
<feBlend mode="normal" in="SourceGraphic" in2="BackgroundImageFix" result="shape"/>
<feGaussianBlur stdDeviation="0.648" result="effect1_foregroundBlur_594_1228"/>
</filter>
<filter id="filter28_f_594_1228" x="91.9271" y="24.8161" width="3.45601" height="5.3835" filterUnits="userSpaceOnUse" color-interpolation-filters="sRGB">
<feFlood flood-opacity="0" result="BackgroundImageFix"/>
<feBlend mode="normal" in="SourceGraphic" in2="BackgroundImageFix" result="shape"/>
<feGaussianBlur stdDeviation="0.648" result="effect1_foregroundBlur_594_1228"/>
</filter>
<filter id="filter29_f_594_1228" x="93.0897" y="25.2301" width="1.83373" height="3.9392" filterUnits="userSpaceOnUse" color-interpolation-filters="sRGB">
<feFlood flood-opacity="0" result="BackgroundImageFix"/>
<feBlend mode="normal" in="SourceGraphic" in2="BackgroundImageFix" result="shape"/>
<feGaussianBlur stdDeviation="0.216" result="effect1_foregroundBlur_594_1228"/>
</filter>
<linearGradient id="paint0_linear_594_1228" x1="0.830769" y1="0" x2="0.830769" y2="4.06154" gradientUnits="userSpaceOnUse">
<stop stop-color="#2D2E2A"/>
<stop offset="0.760033" stop-color="#DEDEDE"/>
</linearGradient>
<linearGradient id="paint1_linear_594_1228" x1="240.462" y1="204.954" x2="240.462" y2="209.015" gradientUnits="userSpaceOnUse">
<stop stop-color="#2D2E2A"/>
<stop offset="0.760033" stop-color="#DEDEDE"/>
</linearGradient>
<linearGradient id="paint2_linear_594_1228" x1="1.19991" y1="99.6921" x2="1.19991" y2="101.723" gradientUnits="userSpaceOnUse">
<stop stop-color="#2D2E2A"/>
<stop offset="0.760033" stop-color="#DEDEDE"/>
</linearGradient>
<linearGradient id="paint3_linear_594_1228" x1="0.830769" y1="0" x2="0.830769" y2="2.03077" gradientUnits="userSpaceOnUse">
<stop stop-color="#2D2E2A"/>
<stop offset="0.760033" stop-color="#DEDEDE"/>
</linearGradient>
<linearGradient id="paint4_linear_594_1228" x1="1.19991" y1="134.584" x2="1.19991" y2="138.646" gradientUnits="userSpaceOnUse">
<stop stop-color="#2D2E2A"/>
<stop offset="0.760033" stop-color="#DEDEDE"/>
</linearGradient>
<linearGradient id="paint5_linear_594_1228" x1="0.830769" y1="0" x2="0.830769" y2="4.06154" gradientUnits="userSpaceOnUse">
<stop stop-color="#2D2E2A"/>
<stop offset="0.760033" stop-color="#DEDEDE"/>
</linearGradient>
<linearGradient id="paint6_linear_594_1228" x1="1.19991" y1="181.477" x2="1.19991" y2="185.538" gradientUnits="userSpaceOnUse">
<stop stop-color="#2D2E2A"/>
<stop offset="0.760033" stop-color="#DEDEDE"/>
</linearGradient>
<linearGradient id="paint7_linear_594_1228" x1="0.830769" y1="0" x2="0.830769" y2="4.06154" gradientUnits="userSpaceOnUse">
<stop stop-color="#2D2E2A"/>
<stop offset="0.760033" stop-color="#DEDEDE"/>
</linearGradient>
<clipPath id="clip0_594_1228">
<path d="M240 147.692C240 147.488 239.835 147.323 239.631 147.323H238.154V205.292H239.631C239.835 205.292 240 205.127 240 204.923V147.692Z" fill="white"/>
</clipPath>
<clipPath id="clip1_594_1228">
<path d="M0 99.6922C0 99.4883 0.16531 99.323 0.369231 99.323H1.84615V117.231H0.369231C0.16531 117.231 0 117.065 0 116.861V99.6922Z" fill="white"/>
</clipPath>
<clipPath id="clip2_594_1228">
<path d="M0 134.585C0 134.381 0.16531 134.215 0.369231 134.215H1.84615V171.508H0.369231C0.16531 171.508 0 171.342 0 171.138V134.585Z" fill="white"/>
</clipPath>
<clipPath id="clip3_594_1228">
<path d="M0 181.477C0 181.273 0.16531 181.108 0.369231 181.108H1.84615V218.4H0.369231C0.16531 218.4 0 218.235 0 218.031V181.477Z" fill="white"/>
</clipPath>
<clipPath id="clip4_594_1228">
<rect x="1.84619" width="236.308" height="487.754" rx="38.7692" fill="white"/>
</clipPath>
</defs>
</svg>
