<svg width="24" height="24" viewBox="0 0 24 24" fill="none" xmlns="http://www.w3.org/2000/svg">
<path fill-rule="evenodd" clip-rule="evenodd" d="M19.7501 12C19.7501 11.8011 19.6711 11.6103 19.5305 11.4697C19.3898 11.329 19.199 11.25 19.0001 11.25H5.00012C4.80121 11.25 4.61044 11.329 4.46979 11.4697C4.32914 11.6103 4.25012 11.8011 4.25012 12C4.25012 12.1989 4.32914 12.3897 4.46979 12.5303C4.61044 12.671 4.80121 12.75 5.00012 12.75H19.0001C19.199 12.75 19.3898 12.671 19.5305 12.5303C19.6711 12.3897 19.7501 12.1989 19.7501 12ZM19.7501 7C19.7501 6.80109 19.6711 6.61032 19.5305 6.46967C19.3898 6.32902 19.199 6.25 19.0001 6.25H5.00012C4.80121 6.25 4.61044 6.32902 4.46979 6.46967C4.32914 6.61032 4.25012 6.80109 4.25012 7C4.25012 7.19891 4.32914 7.38968 4.46979 7.53033C4.61044 7.67098 4.80121 7.75 5.00012 7.75H19.0001C19.199 7.75 19.3898 7.67098 19.5305 7.53033C19.6711 7.38968 19.7501 7.19891 19.7501 7ZM19.7501 17C19.7501 16.8011 19.6711 16.6103 19.5305 16.4697C19.3898 16.329 19.199 16.25 19.0001 16.25H5.00012C4.80121 16.25 4.61044 16.329 4.46979 16.4697C4.32914 16.6103 4.25012 16.8011 4.25012 17C4.25012 17.1989 4.32914 17.3897 4.46979 17.5303C4.61044 17.671 4.80121 17.75 5.00012 17.75H19.0001C19.199 17.75 19.3898 17.671 19.5305 17.5303C19.6711 17.3897 19.7501 17.1989 19.7501 17Z" fill="white"/>
</svg>
