<svg width="28" height="28" viewBox="0 0 28 28" fill="none" xmlns="http://www.w3.org/2000/svg">
<path d="M14 3.50001C12.4121 3.49842 10.8447 3.85766 9.41602 4.5506C7.98734 5.24355 6.7348 6.25207 5.753 7.50001H8.25C8.44891 7.50001 8.63968 7.57903 8.78033 7.71968C8.92098 7.86033 9 8.0511 9 8.25001C9 8.44892 8.92098 8.63969 8.78033 8.78034C8.63968 8.92099 8.44891 9.00001 8.25 9.00001H4.25C4.05109 9.00001 3.86032 8.92099 3.71967 8.78034C3.57902 8.63969 3.5 8.44892 3.5 8.25001V4.25001C3.5 4.0511 3.57902 3.86033 3.71967 3.71968C3.86032 3.57902 4.05109 3.50001 4.25 3.50001C4.44891 3.50001 4.63968 3.57902 4.78033 3.71968C4.92098 3.86033 5 4.0511 5 4.25001V6.06301C6.12484 4.78458 7.5095 3.76085 9.06151 3.0602C10.6135 2.35956 12.2972 1.99811 14 2.00001C20.627 2.00001 26 7.37301 26 14C26 20.627 20.627 26 14 26C7.373 26 2 20.627 2 14C2 13.5333 2.026 13.0733 2.078 12.62C2.10011 12.4468 2.18524 12.2879 2.31714 12.1735C2.44903 12.0591 2.61844 11.9974 2.793 12C3.258 12 3.607 12.425 3.558 12.887C3.51933 13.253 3.5 13.624 3.5 14C3.5 19.799 8.201 24.5 14 24.5C19.799 24.5 24.5 19.799 24.5 14C24.5 8.20101 19.799 3.50001 14 3.50001ZM13.255 9.20701C13.0271 9.07424 12.7682 9.00392 12.5044 9.00315C12.2406 9.00238 11.9813 9.07119 11.7526 9.20263C11.5239 9.33407 11.3339 9.5235 11.2017 9.75181C11.0696 9.98011 11 10.2392 11 10.503V17.494C11 17.7578 11.0696 18.0169 11.2017 18.2452C11.3339 18.4735 11.5239 18.6629 11.7526 18.7944C11.9813 18.9258 12.2406 18.9946 12.5044 18.9939C12.7682 18.9931 13.0271 18.9228 13.255 18.79L19.256 15.295C19.4828 15.163 19.6711 14.9738 19.8019 14.7463C19.9328 14.5188 20.0016 14.261 20.0016 13.9985C20.0016 13.7361 19.9328 13.4782 19.8019 13.2507C19.6711 13.0232 19.4828 12.834 19.256 12.702L13.255 9.20701ZM12.5 10.503L18.501 13.999L12.5 17.494V10.503Z" fill="white"/>
</svg>
