<svg width="68" height="68" viewBox="0 0 68 68" fill="none" xmlns="http://www.w3.org/2000/svg">
<g clip-path="url(#clip0_27_672)" filter="url(#filter0_d_27_672)">
<path d="M49.9375 0H18.0625C10.296 0 4 6.296 4 14.0625V45.9375C4 53.704 10.296 60 18.0625 60H49.9375C57.704 60 64 53.704 64 45.9375V14.0625C64 6.296 57.704 0 49.9375 0Z" fill="#242938"/>
<path d="M23.8621 26.2409C23.8621 26.8113 23.9238 27.2738 24.0317 27.6131C24.155 27.9523 24.3092 28.3223 24.5251 28.7234C24.6022 28.8466 24.6331 28.9699 24.6331 29.078C24.6331 29.2322 24.5405 29.3864 24.3401 29.5404L23.3687 30.1882C23.2299 30.2805 23.0911 30.327 22.9678 30.327C22.8136 30.327 22.6594 30.2498 22.5052 30.1111C22.2893 29.8798 22.1043 29.633 21.9501 29.3864C21.7959 29.1241 21.6417 28.8312 21.4721 28.4766C20.2694 29.8952 18.7583 30.6045 16.9388 30.6045C15.6436 30.6045 14.6105 30.2344 13.8549 29.4942C13.0993 28.7541 12.7139 27.7673 12.7139 26.5338C12.7139 25.223 13.1764 24.1591 14.117 23.3573C15.0576 22.5555 16.3066 22.1546 17.8948 22.1546C18.419 22.1546 18.9587 22.2009 19.5292 22.278C20.0997 22.3551 20.6857 22.4784 21.3025 22.6172V21.4916C21.3025 20.3197 21.0558 19.5025 20.5778 19.0245C20.0843 18.5465 19.2517 18.3152 18.0644 18.3152C17.5247 18.3152 16.9696 18.3769 16.3991 18.5156C15.8286 18.6544 15.2735 18.824 14.7338 19.0399C14.4871 19.1478 14.3021 19.2095 14.1941 19.2403C14.0862 19.2712 14.0091 19.2866 13.9474 19.2866C13.7315 19.2866 13.6236 19.1324 13.6236 18.8086V18.053C13.6236 17.8063 13.6544 17.6213 13.7315 17.5134C13.8086 17.4054 13.9474 17.2975 14.1633 17.1896C14.703 16.912 15.3506 16.6807 16.1061 16.4957C16.8617 16.2952 17.6635 16.2027 18.5116 16.2027C20.3465 16.2027 21.6879 16.619 22.5514 17.4517C23.3995 18.2843 23.8313 19.5487 23.8313 21.2449V26.2409H23.8621ZM17.6018 28.5846C18.1107 28.5846 18.6349 28.492 19.19 28.3069C19.7451 28.122 20.2385 27.7826 20.6548 27.3202C20.9016 27.0272 21.0866 26.7033 21.1791 26.3332C21.2716 25.9631 21.3333 25.5159 21.3333 24.9919V24.3441C20.8861 24.2362 20.4081 24.1437 19.9147 24.082C19.4213 24.0204 18.9433 23.9895 18.4653 23.9895C17.4322 23.9895 16.6766 24.1901 16.1678 24.6063C15.659 25.0226 15.4123 25.6085 15.4123 26.3796C15.4123 27.1043 15.5973 27.6438 15.9828 28.0139C16.3528 28.3995 16.8925 28.5846 17.6018 28.5846ZM29.9836 30.2498C29.7061 30.2498 29.5209 30.2034 29.3976 30.0956C29.2743 30.003 29.1663 29.7872 29.0739 29.4942L25.4503 17.575C25.3578 17.2667 25.3115 17.0662 25.3115 16.9583C25.3115 16.7115 25.4349 16.5728 25.6816 16.5728H27.1927C27.4856 16.5728 27.6862 16.619 27.794 16.727C27.9173 16.8195 28.0099 17.0354 28.1025 17.3283L30.6928 27.536L33.0984 17.3283C33.1755 17.0199 33.2679 16.8195 33.3914 16.727C33.5146 16.6345 33.7305 16.5728 34.008 16.5728H35.2415C35.5345 16.5728 35.7351 16.619 35.8584 16.727C35.9817 16.8195 36.0897 17.0354 36.1514 17.3283L38.5877 27.6593L41.2551 17.3283C41.3477 17.0199 41.4557 16.8195 41.5636 16.727C41.6868 16.6345 41.8875 16.5728 42.165 16.5728H43.5989C43.8457 16.5728 43.9844 16.6961 43.9844 16.9583C43.9844 17.0354 43.9689 17.1125 43.9535 17.205C43.9382 17.2975 43.9073 17.4208 43.8457 17.5905L40.1296 29.5097C40.0371 29.8181 39.929 30.0185 39.8057 30.1111C39.6825 30.2034 39.4818 30.2653 39.2198 30.2653H37.8937C37.6007 30.2653 37.4004 30.2189 37.2771 30.1111C37.1536 30.003 37.0457 29.8027 36.9841 29.4942L34.5939 19.5487L32.2195 29.4788C32.1424 29.7872 32.0498 29.9876 31.9265 30.0956C31.803 30.2034 31.5871 30.2498 31.3096 30.2498H29.9836ZM49.7976 30.6661C48.9958 30.6661 48.194 30.5735 47.4229 30.3886C46.6521 30.2034 46.0507 30.003 45.6497 29.7717C45.4031 29.633 45.2334 29.4787 45.1718 29.34C45.1101 29.2012 45.0792 29.047 45.0792 28.9083V28.122C45.0792 27.798 45.2025 27.6438 45.4338 27.6438C45.5264 27.6438 45.6189 27.6593 45.7113 27.6902C45.8039 27.7209 45.9426 27.7826 46.0968 27.8445C46.6211 28.0755 47.1916 28.2607 47.793 28.384C48.4099 28.5075 49.0111 28.5691 49.6279 28.5691C50.5994 28.5691 51.3548 28.3995 51.8791 28.0603C52.4034 27.7209 52.6809 27.2276 52.6809 26.5955C52.6809 26.1637 52.5421 25.8089 52.2646 25.5159C51.9871 25.223 51.4628 24.9609 50.7072 24.7141L48.4715 24.0204C47.3458 23.6658 46.5131 23.1414 46.0043 22.4476C45.4954 21.7691 45.2334 21.0136 45.2334 20.2118C45.2334 19.5641 45.3722 18.9936 45.6497 18.5002C45.9271 18.0068 46.2972 17.575 46.7599 17.2358C47.2225 16.8812 47.7468 16.619 48.3635 16.434C48.9804 16.249 49.6279 16.1719 50.3064 16.1719C50.6456 16.1719 51.0002 16.1873 51.3396 16.2336C51.6942 16.2798 52.0178 16.3415 52.3418 16.4032C52.6502 16.4803 52.9432 16.5574 53.2207 16.6499C53.4982 16.7424 53.714 16.8349 53.8682 16.9274C54.0841 17.0508 54.2383 17.1741 54.3309 17.3129C54.4232 17.4363 54.4697 17.6059 54.4697 17.8218V18.5465C54.4697 18.8703 54.3464 19.0399 54.115 19.0399C53.9915 19.0399 53.7911 18.9782 53.5291 18.8549C52.6502 18.4539 51.6632 18.2535 50.5685 18.2535C49.6896 18.2535 48.9958 18.3923 48.5177 18.6852C48.0398 18.9782 47.793 19.4254 47.793 20.0576C47.793 20.4893 47.9472 20.8594 48.2557 21.1523C48.5639 21.4453 49.1346 21.7383 49.9518 22.0004L52.1414 22.6943C53.2514 23.0489 54.0534 23.5423 54.5313 24.1746C55.0092 24.8067 55.2405 25.5314 55.2405 26.3332C55.2405 26.9963 55.1018 27.5977 54.8397 28.122C54.5622 28.6462 54.1922 29.1087 53.714 29.4788C53.2361 29.8643 52.6654 30.1418 52.0026 30.3424C51.3086 30.5583 50.5839 30.6661 49.7976 30.6661Z" fill="white"/>
<path fill-rule="evenodd" clip-rule="evenodd" d="M52.7118 38.16C47.6387 41.9069 40.2684 43.8961 33.9309 43.8961C25.0493 43.8961 17.0467 40.6116 11.0023 35.1532C10.5243 34.7215 10.956 34.1355 11.5265 34.4747C18.0643 38.2678 26.1287 40.5654 34.4706 40.5654C40.0987 40.5654 46.2819 39.3935 51.9716 36.9881C52.8196 36.6026 53.5443 37.5431 52.7118 38.16Z" fill="#FF9900"/>
<path fill-rule="evenodd" clip-rule="evenodd" d="M54.8243 35.7546C54.1767 34.9219 50.5378 35.3536 48.8878 35.554C48.3945 35.6158 48.3173 35.1839 48.7645 34.8602C51.6633 32.8249 56.4279 33.4108 56.9831 34.0891C57.5381 34.7831 56.8289 39.5477 54.1151 41.8298C53.6986 42.1844 53.2978 41.9993 53.4827 41.5369C54.0996 40.0104 55.4719 36.5716 54.8243 35.7546Z" fill="#FF9900"/>
</g>
<defs>
<filter id="filter0_d_27_672" x="0" y="0" width="68" height="68" filterUnits="userSpaceOnUse" color-interpolation-filters="sRGB">
<feFlood flood-opacity="0" result="BackgroundImageFix"/>
<feColorMatrix in="SourceAlpha" type="matrix" values="0 0 0 0 0 0 0 0 0 0 0 0 0 0 0 0 0 0 127 0" result="hardAlpha"/>
<feOffset dy="4"/>
<feGaussianBlur stdDeviation="2"/>
<feComposite in2="hardAlpha" operator="out"/>
<feColorMatrix type="matrix" values="0 0 0 0 0 0 0 0 0 0 0 0 0 0 0 0 0 0 0.25 0"/>
<feBlend mode="normal" in2="BackgroundImageFix" result="effect1_dropShadow_27_672"/>
<feBlend mode="normal" in="SourceGraphic" in2="effect1_dropShadow_27_672" result="shape"/>
</filter>
<clipPath id="clip0_27_672">
<rect width="60" height="60" fill="white" transform="translate(4)"/>
</clipPath>
</defs>
</svg>
