<svg width="68" height="68" viewBox="0 0 68 68" fill="none" xmlns="http://www.w3.org/2000/svg">
<g clip-path="url(#clip0_27_620)" filter="url(#filter0_d_27_620)">
<path d="M49.9375 0H18.0625C10.296 0 4 6.296 4 14.0625V45.9375C4 53.704 10.296 60 18.0625 60H49.9375C57.704 60 64 53.704 64 45.9375V14.0625C64 6.296 57.704 0 49.9375 0Z" fill="#242938"/>
<path d="M57.4375 42.8759C56.7552 43.1344 56.002 43.1337 55.3199 42.8745C54.6381 42.615 54.0747 42.1149 53.7365 41.4685C51.6123 38.2887 49.2667 35.2524 47.0123 32.1509L46.0347 30.8478C43.3502 34.4445 40.6656 37.8978 38.2157 41.4816C37.8965 42.0994 37.3637 42.5801 36.7164 42.8342C36.0691 43.0885 35.3514 43.0985 34.6973 42.863L44.7707 29.3492L35.4009 17.1384C36.0754 16.8948 36.8132 16.8915 37.4898 17.1289C38.1665 17.3663 38.7405 17.83 39.115 18.4415C41.2912 21.6213 43.7022 24.6577 46.0998 27.8766C48.5109 24.6837 50.8956 21.6343 53.1241 18.4806C53.4449 17.8729 53.9781 17.4043 54.6222 17.164C55.266 16.9237 55.9759 16.9285 56.6165 17.1775L52.9806 21.9992C51.3517 24.1493 49.7488 26.3126 48.0548 28.4107C47.9181 28.5331 47.8089 28.6826 47.7341 28.85C47.6594 29.0173 47.6207 29.1985 47.6207 29.3817C47.6207 29.5648 47.6594 29.746 47.7341 29.9133C47.8089 30.0807 47.9181 30.2302 48.0548 30.3525C51.1694 34.4836 54.2577 38.6276 57.4375 42.8759Z" fill="white"/>
<path d="M10.5625 29.1797C10.8362 27.8766 11.0056 26.456 11.3835 25.1269C13.638 17.1124 22.8253 13.7763 29.1456 18.7414C32.8466 21.6474 33.772 25.7656 33.5896 30.4048H12.7388C12.4 38.693 18.3815 43.6971 26.0311 41.1429C27.272 40.699 28.3827 39.9532 29.2633 38.9726C30.1438 37.992 30.7661 36.8074 31.0743 35.5261C31.4784 34.223 32.1299 34.0015 33.3679 34.3793C33.164 35.9658 32.6031 37.4855 31.7273 38.824C30.8516 40.1625 29.6838 41.2849 28.3117 42.1071C26.0447 43.347 23.4437 43.838 20.8808 43.5103C18.3178 43.1827 15.9241 42.053 14.042 40.2827C12.1799 38.1891 11.0541 35.5439 10.8362 32.7504C10.8362 32.3074 10.6667 31.8642 10.5755 31.4473C10.5668 30.6741 10.5625 29.9182 10.5625 29.1797ZM12.7649 28.6193H31.6218C31.5044 22.6118 27.7122 18.3504 22.6559 18.3113C17.0262 18.2331 12.9994 22.4033 12.7518 28.5933L12.7649 28.6193Z" fill="white"/>
</g>
<defs>
<filter id="filter0_d_27_620" x="0" y="0" width="68" height="68" filterUnits="userSpaceOnUse" color-interpolation-filters="sRGB">
<feFlood flood-opacity="0" result="BackgroundImageFix"/>
<feColorMatrix in="SourceAlpha" type="matrix" values="0 0 0 0 0 0 0 0 0 0 0 0 0 0 0 0 0 0 127 0" result="hardAlpha"/>
<feOffset dy="4"/>
<feGaussianBlur stdDeviation="2"/>
<feComposite in2="hardAlpha" operator="out"/>
<feColorMatrix type="matrix" values="0 0 0 0 0 0 0 0 0 0 0 0 0 0 0 0 0 0 0.25 0"/>
<feBlend mode="normal" in2="BackgroundImageFix" result="effect1_dropShadow_27_620"/>
<feBlend mode="normal" in="SourceGraphic" in2="effect1_dropShadow_27_620" result="shape"/>
</filter>
<clipPath id="clip0_27_620">
<rect width="60" height="60" fill="white" transform="translate(4)"/>
</clipPath>
</defs>
</svg>
