<svg width="68" height="68" viewBox="0 0 68 68" fill="none" xmlns="http://www.w3.org/2000/svg">
<g clip-path="url(#clip0_27_640)" filter="url(#filter0_d_27_640)">
<path d="M49.9375 0H18.0625C10.296 0 4 6.296 4 14.0625V45.9375C4 53.704 10.296 60 18.0625 60H49.9375C57.704 60 64 53.704 64 45.9375V14.0625C64 6.296 57.704 0 49.9375 0Z" fill="#242938"/>
<mask id="mask0_27_640" style="mask-type:luminance" maskUnits="userSpaceOnUse" x="18" y="6" width="32" height="48">
<path d="M49.5531 6.5625H18.2969V53.4375H49.5531V6.5625Z" fill="white"/>
</mask>
<g mask="url(#mask0_27_640)">
<path d="M26.1126 53.4375C30.4251 53.4375 33.9251 49.9375 33.9251 45.625V37.8124H26.1126C21.8001 37.8124 18.3 41.3125 18.3 45.625C18.3 49.9375 21.8001 53.4375 26.1126 53.4375Z" fill="#0ACF83"/>
<path d="M18.3 30C18.3 25.6875 21.8001 22.1875 26.1126 22.1875H33.9251V37.8124H26.1126C21.8001 37.8124 18.3 34.3125 18.3 30Z" fill="#A259FF"/>
<path d="M18.3 14.375C18.3 10.0625 21.8001 6.5625 26.1126 6.5625H33.9251V22.1875H26.1126C21.8001 22.1875 18.3 18.6875 18.3 14.375Z" fill="#F24E1E"/>
<path d="M33.925 6.5625H41.7375C46.05 6.5625 49.5501 10.0625 49.5501 14.375C49.5501 18.6875 46.05 22.1875 41.7375 22.1875H33.925V6.5625Z" fill="#FF7262"/>
<path d="M49.5501 30C49.5501 34.3125 46.05 37.8124 41.7375 37.8124C37.425 37.8124 33.925 34.3125 33.925 30C33.925 25.6875 37.425 22.1875 41.7375 22.1875C46.05 22.1875 49.5501 25.6875 49.5501 30Z" fill="#1ABCFE"/>
</g>
</g>
<defs>
<filter id="filter0_d_27_640" x="0" y="0" width="68" height="68" filterUnits="userSpaceOnUse" color-interpolation-filters="sRGB">
<feFlood flood-opacity="0" result="BackgroundImageFix"/>
<feColorMatrix in="SourceAlpha" type="matrix" values="0 0 0 0 0 0 0 0 0 0 0 0 0 0 0 0 0 0 127 0" result="hardAlpha"/>
<feOffset dy="4"/>
<feGaussianBlur stdDeviation="2"/>
<feComposite in2="hardAlpha" operator="out"/>
<feColorMatrix type="matrix" values="0 0 0 0 0 0 0 0 0 0 0 0 0 0 0 0 0 0 0.25 0"/>
<feBlend mode="normal" in2="BackgroundImageFix" result="effect1_dropShadow_27_640"/>
<feBlend mode="normal" in="SourceGraphic" in2="effect1_dropShadow_27_640" result="shape"/>
</filter>
<clipPath id="clip0_27_640">
<rect width="60" height="60" fill="white" transform="translate(4)"/>
</clipPath>
</defs>
</svg>
