<svg width="68" height="68" viewBox="0 0 68 68" fill="none" xmlns="http://www.w3.org/2000/svg">
<g clip-path="url(#clip0_27_633)" filter="url(#filter0_d_27_633)">
<path d="M49.9375 0H18.0625C10.296 0 4 6.296 4 14.0625V45.9375C4 53.704 10.296 60 18.0625 60H49.9375C57.704 60 64 53.704 64 45.9375V14.0625C64 6.296 57.704 0 49.9375 0Z" fill="#F03C2E"/>
<mask id="mask0_27_633" style="mask-type:luminance" maskUnits="userSpaceOnUse" x="10" y="6" width="48" height="48">
<path d="M57.4375 6.5625H10.5625V53.4375H57.4375V6.5625Z" fill="white"/>
</mask>
<g mask="url(#mask0_27_633)">
<path d="M56.5528 27.9127L36.0874 7.44729C35.8073 7.16691 35.4745 6.94451 35.1084 6.79278C34.7421 6.64102 34.3495 6.56293 33.9532 6.56293C33.5569 6.56293 33.1643 6.64102 32.798 6.79278C32.4319 6.94451 32.0991 7.16691 31.819 7.44729L27.5709 11.6953L32.9616 17.086C34.2155 16.6465 35.651 16.9468 36.6499 17.9458C37.1255 18.4222 37.4576 19.0228 37.608 19.6789C37.7585 20.335 37.7215 21.0202 37.5009 21.6563L42.6968 26.8521C43.9537 26.4185 45.4038 26.6982 46.4072 27.7046C46.7409 28.0383 47.0055 28.4344 47.186 28.8703C47.3665 29.3063 47.4593 29.7734 47.4593 30.2452C47.4591 30.717 47.3662 31.1841 47.1855 31.62C47.0048 32.0557 46.7402 32.4518 46.4065 32.7853C46.073 33.1191 45.6769 33.3835 45.2409 33.5639C44.805 33.7446 44.3379 33.8374 43.8661 33.8372C43.3943 33.8372 42.9269 33.7442 42.4912 33.5637C42.0553 33.383 41.6592 33.1184 41.3257 32.7846C40.271 31.7299 40.0104 30.1772 40.5436 28.8778L35.6979 24.0321V36.7838C36.0497 36.9577 36.371 37.1874 36.6499 37.4635C36.9834 37.797 37.248 38.1928 37.4287 38.6288C37.6092 39.0645 37.702 39.5316 37.702 40.0034C37.702 40.4752 37.6092 40.9423 37.4287 41.378C37.248 41.8139 36.9834 42.21 36.6499 42.5435C36.3164 42.8771 35.9203 43.1417 35.4846 43.3221C35.0487 43.5026 34.5816 43.5957 34.11 43.5957C33.6382 43.5957 33.1711 43.5026 32.7354 43.3221C32.2994 43.1417 31.9034 42.8771 31.5698 42.5435C31.2359 42.21 30.971 41.8142 30.7903 41.3785C30.6094 40.9425 30.5163 40.4752 30.5163 40.0034C30.5163 39.5316 30.6094 39.0645 30.7903 38.6285C30.971 38.1926 31.2359 37.7967 31.5698 37.4635C31.9169 37.1178 32.3023 36.8555 32.7462 36.6797V23.8095C32.3184 23.6337 31.9169 23.3745 31.5698 23.0259C31.0655 22.5221 30.7226 21.8795 30.5848 21.1801C30.4472 20.4807 30.5208 19.7561 30.7964 19.0987L25.4791 13.7842L11.4459 27.8028C11.1653 28.0831 10.9427 28.4159 10.7908 28.7822C10.639 29.1485 10.5608 29.5411 10.5608 29.9377C10.5608 30.3342 10.639 30.7271 10.7908 31.0934C10.9427 31.4597 11.1653 31.7925 11.4459 32.0728L31.9127 52.5366C32.1928 52.8169 32.5256 53.0393 32.8917 53.1912C33.258 53.3428 33.6506 53.4209 34.0469 53.4209C34.4433 53.4209 34.8359 53.3428 35.2022 53.1912C35.5683 53.0393 35.9011 52.8169 36.1812 52.5366L56.5528 32.1973C56.8334 31.917 57.056 31.5842 57.2079 31.2178C57.3598 30.8515 57.4378 30.4589 57.4378 30.0624C57.4378 29.6658 57.3598 29.273 57.2079 28.9067C57.056 28.5403 56.8334 28.2075 56.5528 27.9272" fill="white"/>
</g>
</g>
<defs>
<filter id="filter0_d_27_633" x="0" y="0" width="68" height="68" filterUnits="userSpaceOnUse" color-interpolation-filters="sRGB">
<feFlood flood-opacity="0" result="BackgroundImageFix"/>
<feColorMatrix in="SourceAlpha" type="matrix" values="0 0 0 0 0 0 0 0 0 0 0 0 0 0 0 0 0 0 127 0" result="hardAlpha"/>
<feOffset dy="4"/>
<feGaussianBlur stdDeviation="2"/>
<feComposite in2="hardAlpha" operator="out"/>
<feColorMatrix type="matrix" values="0 0 0 0 0 0 0 0 0 0 0 0 0 0 0 0 0 0 0.25 0"/>
<feBlend mode="normal" in2="BackgroundImageFix" result="effect1_dropShadow_27_633"/>
<feBlend mode="normal" in="SourceGraphic" in2="effect1_dropShadow_27_633" result="shape"/>
</filter>
<clipPath id="clip0_27_633">
<rect width="60" height="60" fill="white" transform="translate(4)"/>
</clipPath>
</defs>
</svg>
