<svg width="68" height="68" viewBox="0 0 68 68" fill="none" xmlns="http://www.w3.org/2000/svg">
<g clip-path="url(#clip0_27_687)" filter="url(#filter0_d_27_687)">
<path d="M49.9375 0H18.0625C10.296 0 4 6.296 4 14.0625V45.9375C4 53.704 10.296 60 18.0625 60H49.9375C57.704 60 64 53.704 64 45.9375V14.0625C64 6.296 57.704 0 49.9375 0Z" fill="#242938"/>
<path d="M15.2178 41.295L16.9386 42.2886L36.1088 9.08592L34.388 8.09241L15.2178 41.295Z" fill="#E535AB"/>
<path d="M53.164 38.6426H14.8237V40.6296H53.164V38.6426Z" fill="#E535AB"/>
<path d="M15.5823 39.7586L34.7596 50.831L35.7531 49.1102L16.5758 38.0378L15.5823 39.7586Z" fill="#E535AB"/>
<path d="M32.2417 10.9013L51.419 21.9737L52.4125 20.2529L33.2352 9.18054L32.2417 10.9013Z" fill="#E535AB"/>
<path d="M15.5876 20.2452L16.5812 21.966L35.7586 10.8936L34.7651 9.17285L15.5876 20.2452Z" fill="#E535AB"/>
<path d="M31.8953 9.08617L51.0653 42.2888L52.786 41.2953L33.616 8.09265L31.8953 9.08617Z" fill="#E535AB"/>
<path d="M18.3308 18.9276H16.3438V41.0724H18.3308V18.9276Z" fill="#E535AB"/>
<path d="M51.6557 18.9276H49.6687V41.0724H51.6557V18.9276Z" fill="#E535AB"/>
<path d="M33.5535 48.4868L34.4214 49.9901L51.1004 40.3601L50.2325 38.8571L33.5535 48.4868Z" fill="#E535AB"/>
<path d="M54.289 41.7187C53.1399 43.7177 50.5782 44.4 48.5792 43.2508C46.5802 42.1017 45.8979 39.5402 47.0471 37.5412C48.1962 35.542 50.7579 34.8597 52.7569 36.0089C54.7679 37.17 55.4501 39.7197 54.289 41.7187Z" fill="#E535AB"/>
<path d="M20.9404 22.4589C19.7912 24.4577 17.2296 25.1402 15.2306 23.9911C13.2316 22.8419 12.5493 20.2803 13.6984 18.2813C14.8476 16.2823 17.4092 15.6 19.4082 16.7491C21.4072 17.9102 22.0895 20.4599 20.9404 22.4589Z" fill="#E535AB"/>
<path d="M13.7104 41.7187C12.5613 39.7197 13.2436 37.17 15.2426 36.0089C17.2416 34.8597 19.7912 35.542 20.9523 37.5412C22.1015 39.5402 21.4192 42.0897 19.4201 43.2508C17.4092 44.4 14.8595 43.7177 13.7104 41.7187Z" fill="#E535AB"/>
<path d="M47.0591 22.4589C45.9099 20.4599 46.5922 17.9102 48.5912 16.7491C50.5904 15.6 53.1399 16.2823 54.301 18.2813C55.4501 20.2803 54.7679 22.8299 52.7689 23.9911C50.7699 25.1402 48.2082 24.4577 47.0591 22.4589Z" fill="#E535AB"/>
<path d="M33.9998 53.4375C31.6895 53.4375 29.8223 51.5702 29.8223 49.26C29.8223 46.9498 31.6895 45.0823 33.9998 45.0823C36.31 45.0823 38.1773 46.9498 38.1773 49.26C38.1773 51.5583 36.31 53.4375 33.9998 53.4375Z" fill="#E535AB"/>
<path d="M33.9998 14.9176C31.6895 14.9176 29.8223 13.0503 29.8223 10.7401C29.8223 8.42984 31.6895 6.5625 33.9998 6.5625C36.31 6.5625 38.1773 8.42984 38.1773 10.7401C38.1773 13.0503 36.31 14.9176 33.9998 14.9176Z" fill="#E535AB"/>
</g>
<defs>
<filter id="filter0_d_27_687" x="0" y="0" width="68" height="68" filterUnits="userSpaceOnUse" color-interpolation-filters="sRGB">
<feFlood flood-opacity="0" result="BackgroundImageFix"/>
<feColorMatrix in="SourceAlpha" type="matrix" values="0 0 0 0 0 0 0 0 0 0 0 0 0 0 0 0 0 0 127 0" result="hardAlpha"/>
<feOffset dy="4"/>
<feGaussianBlur stdDeviation="2"/>
<feComposite in2="hardAlpha" operator="out"/>
<feColorMatrix type="matrix" values="0 0 0 0 0 0 0 0 0 0 0 0 0 0 0 0 0 0 0.25 0"/>
<feBlend mode="normal" in2="BackgroundImageFix" result="effect1_dropShadow_27_687"/>
<feBlend mode="normal" in="SourceGraphic" in2="effect1_dropShadow_27_687" result="shape"/>
</filter>
<clipPath id="clip0_27_687">
<rect width="60" height="60" fill="white" transform="translate(4)"/>
</clipPath>
</defs>
</svg>
