<svg width="68" height="68" viewBox="0 0 68 68" fill="none" xmlns="http://www.w3.org/2000/svg">
<g clip-path="url(#clip0_27_610)" filter="url(#filter0_d_27_610)">
<path d="M49.9375 0H18.0625C10.296 0 4 6.296 4 14.0625V45.9375C4 53.704 10.296 60 18.0625 60H49.9375C57.704 60 64 53.704 64 45.9375V14.0625C64 6.296 57.704 0 49.9375 0Z" fill="#F0DB4F"/>
<path d="M19.7762 50.1403L24.3679 47.3615C25.2537 48.9321 26.0595 50.261 27.9923 50.261C29.845 50.261 31.0132 49.5363 31.0132 46.7172V27.5458H36.6518V46.7969C36.6518 52.6369 33.2285 55.2951 28.2339 55.2951C23.7235 55.2951 21.1052 52.9591 19.7761 50.1398" fill="#323330"/>
<path d="M39.7144 49.5361L44.3053 46.8781C45.514 48.8517 47.0847 50.3016 49.8635 50.3016C52.2 50.3016 53.6897 49.1335 53.6897 47.5224C53.6897 45.5892 52.1592 44.9044 49.5815 43.7771L48.1722 43.1726C44.1042 41.441 41.4056 39.266 41.4056 34.6746C41.4056 30.4456 44.6278 27.2234 49.6624 27.2234C53.2469 27.2234 55.8246 28.4721 57.6771 31.7344L53.287 34.5537C52.3202 32.8219 51.2735 32.1373 49.6624 32.1373C48.011 32.1373 46.9638 33.1845 46.9638 34.5537C46.9638 36.2452 48.011 36.93 50.4274 37.9775L51.8369 38.5814C56.6297 40.6357 59.3283 42.7296 59.3283 47.4417C59.3283 52.5169 55.3411 55.2957 49.9844 55.2957C44.7487 55.2957 41.3655 52.7986 39.7144 49.5361Z" fill="#323330"/>
</g>
<defs>
<filter id="filter0_d_27_610" x="0" y="0" width="68" height="68" filterUnits="userSpaceOnUse" color-interpolation-filters="sRGB">
<feFlood flood-opacity="0" result="BackgroundImageFix"/>
<feColorMatrix in="SourceAlpha" type="matrix" values="0 0 0 0 0 0 0 0 0 0 0 0 0 0 0 0 0 0 127 0" result="hardAlpha"/>
<feOffset dy="4"/>
<feGaussianBlur stdDeviation="2"/>
<feComposite in2="hardAlpha" operator="out"/>
<feColorMatrix type="matrix" values="0 0 0 0 0 0 0 0 0 0 0 0 0 0 0 0 0 0 0.25 0"/>
<feBlend mode="normal" in2="BackgroundImageFix" result="effect1_dropShadow_27_610"/>
<feBlend mode="normal" in="SourceGraphic" in2="effect1_dropShadow_27_610" result="shape"/>
</filter>
<clipPath id="clip0_27_610">
<rect width="60" height="60" fill="white" transform="translate(4)"/>
</clipPath>
</defs>
</svg>
