<svg width="68" height="68" viewBox="0 0 68 68" fill="none" xmlns="http://www.w3.org/2000/svg">
<g clip-path="url(#clip0_27_624)" filter="url(#filter0_d_27_624)">
<path d="M49.9375 0H18.0625C10.296 0 4 6.296 4 14.0625V45.9375C4 53.704 10.296 60 18.0625 60H49.9375C57.704 60 64 53.704 64 45.9375V14.0625C64 6.296 57.704 0 49.9375 0Z" fill="#023430"/>
<path d="M44.1187 25.2166C41.6491 14.3226 36.5022 11.4224 35.1892 9.37233C34.6478 8.46921 34.1681 7.53045 33.7537 6.5625C33.6843 7.53028 33.5568 8.14001 32.7341 8.87391C31.0825 10.3466 24.0676 16.063 23.4772 28.4409C22.9272 39.982 31.9616 47.0984 33.1551 47.8341C34.0729 48.2857 35.1906 47.8437 35.736 47.4291C40.0909 44.4403 46.0413 36.472 44.1234 25.2166" fill="#10AA50"/>
<path d="M34.1276 41.6885C33.9003 44.545 33.7374 46.2049 33.1599 47.8373C33.1599 47.8373 33.5389 50.5568 33.8051 53.4375H34.7471C34.9719 51.4089 35.3148 49.3952 35.7746 47.4065C34.5551 46.8065 34.1745 44.1951 34.1276 41.6885Z" fill="#B8C4C2"/>
<path d="M35.773 47.4083C34.5407 46.839 34.1842 44.1725 34.1294 41.6886C34.434 37.591 34.5229 33.4803 34.3956 29.3733C34.3309 27.2185 34.4261 9.41434 33.8647 6.80774C34.2489 7.69058 34.6912 8.54682 35.1892 9.37079C36.5022 11.4225 41.6507 14.3226 44.1187 25.2167C46.0412 36.4529 40.1233 44.4001 35.773 47.4083Z" fill="#12924F"/>
</g>
<defs>
<filter id="filter0_d_27_624" x="0" y="0" width="68" height="68" filterUnits="userSpaceOnUse" color-interpolation-filters="sRGB">
<feFlood flood-opacity="0" result="BackgroundImageFix"/>
<feColorMatrix in="SourceAlpha" type="matrix" values="0 0 0 0 0 0 0 0 0 0 0 0 0 0 0 0 0 0 127 0" result="hardAlpha"/>
<feOffset dy="4"/>
<feGaussianBlur stdDeviation="2"/>
<feComposite in2="hardAlpha" operator="out"/>
<feColorMatrix type="matrix" values="0 0 0 0 0 0 0 0 0 0 0 0 0 0 0 0 0 0 0.25 0"/>
<feBlend mode="normal" in2="BackgroundImageFix" result="effect1_dropShadow_27_624"/>
<feBlend mode="normal" in="SourceGraphic" in2="effect1_dropShadow_27_624" result="shape"/>
</filter>
<clipPath id="clip0_27_624">
<rect width="60" height="60" fill="white" transform="translate(4)"/>
</clipPath>
</defs>
</svg>
