<svg width="68" height="68" viewBox="0 0 68 68" fill="none" xmlns="http://www.w3.org/2000/svg">
<g clip-path="url(#clip0_27_629)" filter="url(#filter0_d_27_629)">
<path d="M49.9375 0H18.0625C10.296 0 4 6.296 4 14.0625V45.9375C4 53.704 10.296 60 18.0625 60H49.9375C57.704 60 64 53.704 64 45.9375V14.0625C64 6.296 57.704 0 49.9375 0Z" fill="#242938"/>
<path d="M32.0964 7.2929C33.2493 6.633 34.7507 6.63007 35.9024 7.2929C41.6966 10.5669 47.4927 13.8359 53.286 17.1119C54.3759 17.7257 55.1045 18.9384 55.0935 20.1939V39.892C55.1017 41.1996 54.3009 42.4413 53.1513 43.0411C47.376 46.2973 41.6036 49.5572 35.8293 52.8134C34.653 53.486 33.1213 53.4342 31.9813 52.7062C30.25 51.7027 28.5156 50.7037 26.7841 49.7011C26.4302 49.4902 26.0313 49.3223 25.7815 48.9792C26.0023 48.6816 26.3973 48.6445 26.7182 48.5145C27.4408 48.2845 28.1048 47.9156 28.7685 47.5577C28.9366 47.4429 29.1414 47.4869 29.3024 47.5896C30.783 48.4385 32.2506 49.3123 33.7361 50.153C34.053 50.336 34.3738 50.093 34.6448 49.942C40.312 46.7388 45.9862 43.548 51.6527 40.3439C51.8627 40.2429 51.9787 40.02 51.9616 39.7901C51.9655 33.292 51.9625 26.793 51.9637 20.2949C51.9876 20.034 51.8366 19.7941 51.6006 19.6873C45.8456 16.4461 40.093 13.2001 34.3389 9.95817C34.1348 9.8178 33.8655 9.81745 33.6611 9.95711C27.9067 13.2001 22.1556 16.4492 16.4013 19.6901C16.1662 19.7971 16.0084 20.0331 16.0364 20.2949C16.0374 26.793 16.0364 33.292 16.0364 39.791C16.016 40.0209 16.1409 40.2391 16.3494 40.338C17.8849 41.2087 19.4224 42.0734 20.959 42.9412C21.8246 43.407 22.8874 43.684 23.8411 43.327C24.6827 43.0252 25.2727 42.1662 25.2566 41.2727C25.2646 34.8127 25.2526 28.3516 25.2626 21.8925C25.2416 21.6056 25.5136 21.3687 25.7924 21.3957C26.5303 21.3907 27.269 21.3858 28.0068 21.3977C28.3148 21.3907 28.5266 21.6995 28.4887 21.9885C28.4856 28.4895 28.4966 34.9905 28.4838 41.4914C28.4856 43.2241 27.7738 45.1095 26.1712 45.9572C24.197 46.9798 21.7567 46.763 19.8062 45.7823C18.1177 44.9395 16.5063 43.9448 14.8478 43.042C13.6952 42.4455 12.8983 41.1989 12.9064 39.8923V20.1939C12.8943 18.9124 13.6522 17.6777 14.7757 17.0729C20.55 13.8142 26.3233 10.553 32.0964 7.2929Z" fill="#81CD39"/>
<path d="M37.134 20.9379C39.6524 20.7758 42.3484 20.8419 44.6146 22.0825C46.3693 23.0333 47.342 25.0287 47.3729 26.978C47.3239 27.2407 47.049 27.3858 46.798 27.3678C46.0674 27.3668 45.3364 27.3778 44.6059 27.3628C44.2958 27.3748 44.1158 27.0891 44.0769 26.8151C43.8669 25.8823 43.3581 24.9586 42.4803 24.5086C41.1327 23.8341 39.5703 23.8681 38.1008 23.8821C37.0281 23.9389 35.8745 24.0319 34.9656 24.6626C34.2678 25.1405 34.056 26.1052 34.3049 26.8821C34.5397 27.4399 35.1835 27.6199 35.7106 27.7859C38.7456 28.5797 41.9617 28.5005 44.9387 29.5451C46.1713 29.971 47.3769 30.799 47.7988 32.0895C48.3507 33.8192 48.1089 35.8864 46.8782 37.2748C45.8802 38.4174 44.4268 39.0394 42.9772 39.3771C41.0488 39.8072 39.0474 39.8182 37.089 39.6272C35.2475 39.4172 33.331 38.9335 31.9096 37.6789C30.6939 36.6232 30.1002 34.9784 30.159 33.3912C30.1731 33.1231 30.44 32.936 30.6969 32.9581C31.4326 32.9522 32.1685 32.9501 32.9042 32.9592C33.1984 32.9382 33.4161 33.1922 33.4314 33.4692C33.5668 34.3578 33.9008 35.2906 34.6759 35.8172C36.1712 36.7821 38.0478 36.716 39.7602 36.743C41.1789 36.6802 42.7714 36.6612 43.929 35.7235C44.5398 35.1886 44.7207 34.2938 44.5557 33.5241C44.3769 32.8742 43.697 32.5714 43.1131 32.3733C40.1171 31.4257 36.8649 31.7696 33.898 30.6978C32.6933 30.2721 31.5285 29.4673 31.0658 28.2298C30.4201 26.4783 30.7159 24.3117 32.0755 22.9702C33.4011 21.6357 35.3146 21.1218 37.134 20.9379Z" fill="#81CD39"/>
</g>
<defs>
<filter id="filter0_d_27_629" x="0" y="0" width="68" height="68" filterUnits="userSpaceOnUse" color-interpolation-filters="sRGB">
<feFlood flood-opacity="0" result="BackgroundImageFix"/>
<feColorMatrix in="SourceAlpha" type="matrix" values="0 0 0 0 0 0 0 0 0 0 0 0 0 0 0 0 0 0 127 0" result="hardAlpha"/>
<feOffset dy="4"/>
<feGaussianBlur stdDeviation="2"/>
<feComposite in2="hardAlpha" operator="out"/>
<feColorMatrix type="matrix" values="0 0 0 0 0 0 0 0 0 0 0 0 0 0 0 0 0 0 0.25 0"/>
<feBlend mode="normal" in2="BackgroundImageFix" result="effect1_dropShadow_27_629"/>
<feBlend mode="normal" in="SourceGraphic" in2="effect1_dropShadow_27_629" result="shape"/>
</filter>
<clipPath id="clip0_27_629">
<rect width="60" height="60" fill="white" transform="translate(4)"/>
</clipPath>
</defs>
</svg>
