<svg width="68" height="68" viewBox="0 0 68 68" fill="none" xmlns="http://www.w3.org/2000/svg">
<g clip-path="url(#clip0_27_682)" filter="url(#filter0_d_27_682)">
<path d="M49.9375 0H18.0625C10.296 0 4 6.296 4 14.0625V45.9375C4 53.704 10.296 60 18.0625 60H49.9375C57.704 60 64 53.704 64 45.9375V14.0625C64 6.296 57.704 0 49.9375 0Z" fill="#764ABC"/>
<path d="M43.042 38.8123C44.7719 38.6332 46.0841 37.1419 46.0244 35.3524C45.9648 33.563 44.4735 32.1314 42.6841 32.1314H42.5648C40.7155 32.191 39.284 33.7418 39.3435 35.591C39.4033 36.4859 39.7612 37.2612 40.2979 37.7981C38.2698 41.7947 35.1681 44.7176 30.5153 47.1633C27.3539 48.8335 24.0731 49.4299 20.7923 49.0125C18.1081 48.6546 16.0203 47.4614 14.708 45.4931C12.7992 42.5702 12.6202 39.4088 14.2308 36.2473C15.3641 33.9804 17.1536 32.3102 18.287 31.4752C18.0484 30.6999 17.6905 29.3874 17.5116 28.433C8.86225 34.6964 9.757 43.1667 12.3816 47.1633C14.3501 50.1457 18.3467 51.9949 22.7608 51.9949C23.9538 51.9949 25.1468 51.8756 26.3398 51.5773C33.9752 50.0862 39.7612 45.5527 43.042 38.8123Z" fill="white"/>
<path d="M53.5404 31.4156C49.0071 26.1066 42.3263 23.1838 34.691 23.1838H33.7367C33.1997 22.1101 32.0663 21.3943 30.8138 21.3943H30.6945C28.8453 21.4539 27.4136 23.0049 27.4732 24.8541C27.533 26.6435 29.0241 28.0751 30.8138 28.0751H30.9331C32.2453 28.0156 33.3788 27.1805 33.856 26.0471H34.9296C39.4629 26.0471 43.7578 27.3593 47.6351 29.9243C50.6175 31.8928 52.7651 34.4578 53.9581 37.5596C54.9722 40.0648 54.9125 42.5105 53.8388 44.5983C52.1686 47.7598 49.365 49.4897 45.6666 49.4897C43.2807 49.4897 41.014 48.7739 39.8208 48.237C39.1648 48.8335 37.9718 49.7878 37.1367 50.3843C39.7015 51.5773 42.3263 52.2335 44.8315 52.2335C50.558 52.2335 54.7932 49.0721 56.4038 45.9106C58.1337 42.451 58.0144 36.4859 53.5404 31.4156Z" fill="white"/>
<path d="M23.2381 39.8264C23.2977 41.6159 24.789 43.0474 26.5785 43.0474H26.6978C28.5469 42.9877 29.9787 41.4368 29.9189 39.5876C29.8594 37.7981 28.368 36.3666 26.5785 36.3666H26.4592C26.3399 36.3666 26.161 36.3666 26.0417 36.4263C23.596 32.37 22.5819 27.9558 22.9398 23.1838C23.1784 19.6048 24.3714 16.503 26.4592 13.938C28.189 11.731 31.5295 10.6572 33.7962 10.5976C40.1191 10.4783 42.8034 18.3521 42.9823 21.5136C43.7578 21.6926 45.0701 22.1101 45.9649 22.4084C45.2491 12.745 39.2841 7.73438 33.5576 7.73438C28.189 7.73438 23.2381 11.6116 21.2696 17.3381C18.5257 24.9734 20.3152 32.3102 23.6556 38.0965C23.3574 38.5139 23.1784 39.1702 23.2381 39.8264Z" fill="white"/>
</g>
<defs>
<filter id="filter0_d_27_682" x="0" y="0" width="68" height="68" filterUnits="userSpaceOnUse" color-interpolation-filters="sRGB">
<feFlood flood-opacity="0" result="BackgroundImageFix"/>
<feColorMatrix in="SourceAlpha" type="matrix" values="0 0 0 0 0 0 0 0 0 0 0 0 0 0 0 0 0 0 127 0" result="hardAlpha"/>
<feOffset dy="4"/>
<feGaussianBlur stdDeviation="2"/>
<feComposite in2="hardAlpha" operator="out"/>
<feColorMatrix type="matrix" values="0 0 0 0 0 0 0 0 0 0 0 0 0 0 0 0 0 0 0.25 0"/>
<feBlend mode="normal" in2="BackgroundImageFix" result="effect1_dropShadow_27_682"/>
<feBlend mode="normal" in="SourceGraphic" in2="effect1_dropShadow_27_682" result="shape"/>
</filter>
<clipPath id="clip0_27_682">
<rect width="60" height="60" fill="white" transform="translate(4)"/>
</clipPath>
</defs>
</svg>
